<svg width="512" height="512" xmlns="http://www.w3.org/2000/svg">

 <g>
  <title>background</title>
  <rect fill="none" id="canvas_background" height="402" width="582" y="-1" x="-1"/>
 </g>
 <g>
  <title>Layer 1</title>
  <g id="svg_1">
   <path fill="#999999" id="svg_2" d="m256,33c-123.7,0 -224,100.3 -224,224c0,123.7 100.3,224 224,224c123.7,0 224,-100.3 224,-224c0,-123.7 -100.3,-224 -224,-224zm108.3,299.5c1.5,1.5 2.3,3.5 2.3,5.6c0,2.1 -0.8,4.2 -2.3,5.6l-21.6,21.7c-1.6,1.6 -3.6,2.3 -5.6,2.3c-2,0 -4.1,-0.8 -5.6,-2.3l-75.5,-75.6l-75.4,75.7c-1.5,1.6 -3.6,2.3 -5.6,2.3c-2,0 -4.1,-0.8 -5.6,-2.3l-21.6,-21.7c-1.5,-1.5 -2.3,-3.5 -2.3,-5.6c0,-2.1 0.8,-4.2 2.3,-5.6l75.7,-76l-75.9,-75c-3.1,-3.1 -3.1,-8.2 0,-11.3l21.6,-21.7c1.5,-1.5 3.5,-2.3 5.6,-2.3c2.1,0 4.1,0.8 5.6,2.3l75.7,74.7l75.7,-74.7c1.5,-1.5 3.5,-2.3 5.6,-2.3c2.1,0 4.1,0.8 5.6,2.3l21.6,21.7c3.1,3.1 3.1,8.2 0,11.3l-75.9,75l75.6,75.9z"/>
  </g>
 </g>
</svg>