<svg width="128" height="128" xmlns="http://www.w3.org/2000/svg">

 <g>
  <title>background</title>
  <rect fill="none" id="canvas_background" height="402" width="582" y="-1" x="-1"/>
 </g>
 <g>
  <title>Layer 1</title>
  <path fill="#999999" stroke="#999999" id="svg_1" d="m61.894,66.056l-45.709,0c-1.104,0 -2,-0.896 -2,-2s0.896,-2 2,-2l45.709,0c1.104,0 2,0.896 2,2s-0.896,2 -2,2z"/>
  <path fill="#999999" stroke="#999999" id="svg_2" d="m111.907,66.056l-24.252,0c-1.104,0 -2,-0.896 -2,-2s0.896,-2 2,-2l24.252,0c1.104,0 2,0.896 2,2s-0.895,2 -2,2z"/>
  <path fill="#999999" stroke="#999999" id="svg_3" d="m48.503,96.609l-32.318,0c-1.104,0 -2,-0.896 -2,-2s0.896,-2 2,-2l32.318,0c1.104,0 2,0.896 2,2s-0.896,2 -2,2z"/>
  <path fill="#999999" stroke="#999999" id="svg_4" d="m111.907,96.609l-37.133,0c-1.104,0 -2,-0.896 -2,-2s0.896,-2 2,-2l37.133,0c1.104,0 2,0.896 2,2s-0.895,2 -2,2z"/>
  <path fill="#999999" stroke="#999999" id="svg_5" d="m35.013,35.502l-18.828,0c-1.104,0 -2,-0.896 -2,-2s0.896,-2 2,-2l18.828,0c1.104,0 2,0.896 2,2s-0.896,2 -2,2z"/>
  <path fill="#999999" stroke="#999999" id="svg_6" d="m111.907,35.502l-51.131,0c-1.104,0 -2,-0.896 -2,-2s0.896,-2 2,-2l51.131,0c1.104,0 2,0.896 2,2s-0.895,2 -2,2z"/>
  <path fill="#999999" stroke="#999999" id="svg_7" d="m42.616,43.104c-5.295,0 -9.604,-4.309 -9.604,-9.604c0,-5.295 4.309,-9.603 9.604,-9.603s9.604,4.308 9.604,9.603c0,5.296 -4.309,9.604 -9.604,9.604zm0,-15.207c-3.09,0 -5.604,2.514 -5.604,5.603c0,3.09 2.514,5.604 5.604,5.604s5.604,-2.514 5.604,-5.604c0,-3.089 -2.514,-5.603 -5.604,-5.603z"/>
  <path fill="#999999" stroke="#999999" id="svg_8" d="m56.106,104.215c-5.295,0 -9.604,-4.309 -9.604,-9.605c0,-5.295 4.309,-9.604 9.604,-9.604c5.297,0 9.605,4.309 9.605,9.604c0.001,5.296 -4.308,9.605 -9.605,9.605zm0,-15.209c-3.09,0 -5.604,2.514 -5.604,5.604c0,3.092 2.514,5.605 5.604,5.605c3.091,0 5.605,-2.514 5.605,-5.605c0.001,-3.09 -2.514,-5.604 -5.605,-5.604z"/>
  <path fill="#999999" stroke="#999999" id="svg_9" d="m69.501,73.661c-5.298,0 -9.607,-4.31 -9.607,-9.605c0,-5.295 4.31,-9.604 9.607,-9.604c5.294,0 9.602,4.308 9.602,9.604c0,5.296 -4.308,9.605 -9.602,9.605zm0,-15.209c-3.092,0 -5.607,2.514 -5.607,5.604c0,3.091 2.516,5.605 5.607,5.605c3.089,0 5.602,-2.515 5.602,-5.605c0,-3.09 -2.513,-5.604 -5.602,-5.604z"/>
 </g>
</svg>